<?xml version="1.0" standalone="no"?>
<!DOCTYPE svg PUBLIC "-//W3C//DTD SVG 20010904//EN"
 "http://www.w3.org/TR/2001/REC-SVG-20010904/DTD/svg10.dtd">
<svg version="1.0" xmlns="http://www.w3.org/2000/svg"
 width="1583.000000pt" height="1583.000000pt" viewBox="0 0 1583.000000 1583.000000"
 preserveAspectRatio="xMidYMid meet">
<metadata>
Created by potrace 1.11, written by Peter Selinger 2001-2013
</metadata>
<g transform="translate(0.000000,1583.000000) scale(0.100000,-0.100000)"
fill="#000000" stroke="none">
<path d="M7510 15704 c-25 -2 -115 -8 -200 -14 -1156 -81 -2325 -435 -3340
-1012 -982 -559 -1830 -1314 -2492 -2220 -759 -1039 -1240 -2234 -1413 -3513
-50 -375 -60 -538 -60 -1025 0 -487 10 -650 60 -1025 156 -1152 553 -2216
1190 -3190 302 -461 630 -863 1034 -1265 1281 -1274 2931 -2063 4736 -2264
307 -35 448 -41 890 -41 609 0 962 31 1493 131 1390 262 2641 865 3734 1801
197 168 565 531 736 725 1040 1181 1680 2574 1887 4103 50 375 60 538 60 1025
0 487 -10 650 -60 1025 -207 1529 -847 2922 -1887 4103 -169 191 -542 559
-738 727 -1236 1058 -2679 1692 -4290 1885 -275 33 -455 42 -865 45 -236 1
-450 1 -475 -1z"/>
</g>
</svg>
